<svg width="102" height="8" viewBox="0 0 102 8" fill="none" xmlns="http://www.w3.org/2000/svg">
<path opacity="0.2" d="M101.354 4.35355C101.549 4.15828 101.549 3.8417 101.354 3.64644L98.1716 0.464584C97.9763 0.269329 97.6597 0.269342 97.4645 0.464611C97.2692 0.659881 97.2692 0.976464 97.4645 1.17172L100.293 4.00004L97.4647 6.82857C97.2695 7.02384 97.2695 7.34042 97.4648 7.53568C97.66 7.73093 97.9766 7.73092 98.1719 7.53565L101.354 4.35355ZM0.00390625 4.00391L0.00392554 4.50391L1.48916 4.50385L1.48915 4.00385L1.48913 3.50385L0.00388696 3.50391L0.00390625 4.00391ZM4.45962 4.00373L4.45964 4.50373L7.43012 4.50362L7.4301 4.00362L7.43008 3.50362L4.4596 3.50373L4.45962 4.00373ZM10.4006 4.00351L10.4006 4.50351L13.3711 4.50339L13.3711 4.00339L13.371 3.50339L10.4006 3.50351L10.4006 4.00351ZM16.3415 4.00328L16.3416 4.50328L19.312 4.50316L19.312 4.00316L19.312 3.50316L16.3415 3.50328L16.3415 4.00328ZM22.2825 4.00305L22.2825 4.50305L25.253 4.50293L25.253 4.00293L25.2529 3.50293L22.2825 3.50305L22.2825 4.00305ZM28.2234 4.00282L28.2235 4.50282L31.1939 4.5027L31.1939 4.0027L31.1939 3.5027L28.2234 3.50282L28.2234 4.00282ZM34.1644 4.00259L34.1644 4.50259L37.1349 4.50247L37.1349 4.00247L37.1349 3.50247L34.1644 3.50259L34.1644 4.00259ZM40.1054 4.00236L40.1054 4.50236L43.0759 4.50224L43.0758 4.00224L43.0758 3.50224L40.1053 3.50236L40.1054 4.00236ZM46.0463 4.00213L46.0463 4.50213L49.0168 4.50201L49.0168 4.00201L49.0168 3.50201L46.0463 3.50213L46.0463 4.00213ZM51.9873 4.0019L51.9873 4.5019L54.9578 4.50179L54.9578 4.00179L54.9577 3.50179L51.9873 3.5019L51.9873 4.0019ZM57.9282 4.00167L57.9282 4.50167L60.8987 4.50156L60.8987 4.00156L60.8987 3.50156L57.9282 3.50167L57.9282 4.00167ZM63.8692 4.00144L63.8692 4.50144L66.8397 4.50133L66.8397 4.00133L66.8396 3.50133L63.8692 3.50144L63.8692 4.00144ZM69.8101 4.00121L69.8102 4.50121L72.7806 4.5011L72.7806 4.0011L72.7806 3.5011L69.8101 3.50121L69.8101 4.00121ZM75.7511 4.00098L75.7511 4.50098L78.7216 4.50087L78.7216 4.00087L78.7215 3.50087L75.7511 3.50098L75.7511 4.00098ZM81.692 4.00075L81.6921 4.50075L84.6625 4.50064L84.6625 4.00064L84.6625 3.50064L81.692 3.50075L81.692 4.00075ZM87.633 4.00052L87.633 4.50052L90.6035 4.50041L90.6035 4.00041L90.6034 3.50041L87.633 3.50052L87.633 4.00052ZM93.5739 4.0003L93.5739 4.5003L96.5444 4.50018L96.5444 4.00018L96.5444 3.50018L93.5739 3.5003L93.5739 4.0003ZM99.5149 4.00007L99.5149 4.50007L101 4.50001L101 4.00001L101 3.50001L99.5149 3.50007L99.5149 4.00007ZM101.354 4.35355C101.549 4.15828 101.549 3.8417 101.354 3.64644L98.1716 0.464584C97.9763 0.269329 97.6597 0.269342 97.4645 0.464611C97.2692 0.659881 97.2692 0.976464 97.4645 1.17172L100.293 4.00004L97.4647 6.82857C97.2695 7.02384 97.2695 7.34042 97.4648 7.53568C97.66 7.73093 97.9766 7.73092 98.1719 7.53565L101.354 4.35355ZM0.00390625 4.00391L0.00392554 4.50391L1.48916 4.50385L1.48915 4.00385L1.48913 3.50385L0.00388696 3.50391L0.00390625 4.00391ZM4.45962 4.00373L4.45964 4.50373L7.43012 4.50362L7.4301 4.00362L7.43008 3.50362L4.4596 3.50373L4.45962 4.00373ZM10.4006 4.00351L10.4006 4.50351L13.3711 4.50339L13.3711 4.00339L13.371 3.50339L10.4006 3.50351L10.4006 4.00351ZM16.3415 4.00328L16.3416 4.50328L19.312 4.50316L19.312 4.00316L19.312 3.50316L16.3415 3.50328L16.3415 4.00328ZM22.2825 4.00305L22.2825 4.50305L25.253 4.50293L25.253 4.00293L25.2529 3.50293L22.2825 3.50305L22.2825 4.00305ZM28.2234 4.00282L28.2235 4.50282L31.1939 4.5027L31.1939 4.0027L31.1939 3.5027L28.2234 3.50282L28.2234 4.00282ZM34.1644 4.00259L34.1644 4.50259L37.1349 4.50247L37.1349 4.00247L37.1349 3.50247L34.1644 3.50259L34.1644 4.00259ZM40.1054 4.00236L40.1054 4.50236L43.0759 4.50224L43.0758 4.00224L43.0758 3.50224L40.1053 3.50236L40.1054 4.00236ZM46.0463 4.00213L46.0463 4.50213L49.0168 4.50201L49.0168 4.00201L49.0168 3.50201L46.0463 3.50213L46.0463 4.00213ZM51.9873 4.0019L51.9873 4.5019L54.9578 4.50179L54.9578 4.00179L54.9577 3.50179L51.9873 3.5019L51.9873 4.0019ZM57.9282 4.00167L57.9282 4.50167L60.8987 4.50156L60.8987 4.00156L60.8987 3.50156L57.9282 3.50167L57.9282 4.00167ZM63.8692 4.00144L63.8692 4.50144L66.8397 4.50133L66.8397 4.00133L66.8396 3.50133L63.8692 3.50144L63.8692 4.00144ZM69.8101 4.00121L69.8102 4.50121L72.7806 4.5011L72.7806 4.0011L72.7806 3.5011L69.8101 3.50121L69.8101 4.00121ZM75.7511 4.00098L75.7511 4.50098L78.7216 4.50087L78.7216 4.00087L78.7215 3.50087L75.7511 3.50098L75.7511 4.00098ZM81.692 4.00075L81.6921 4.50075L84.6625 4.50064L84.6625 4.00064L84.6625 3.50064L81.692 3.50075L81.692 4.00075ZM87.633 4.00052L87.633 4.50052L90.6035 4.50041L90.6035 4.00041L90.6034 3.50041L87.633 3.50052L87.633 4.00052ZM93.5739 4.0003L93.5739 4.5003L96.5444 4.50018L96.5444 4.00018L96.5444 3.50018L93.5739 3.5003L93.5739 4.0003ZM99.5149 4.00007L99.5149 4.50007L101 4.50001L101 4.00001L101 3.50001L99.5149 3.50007L99.5149 4.00007Z" fill="#0F255F"/>
</svg>
