<svg width="8" height="33" viewBox="0 0 8 33" fill="none" xmlns="http://www.w3.org/2000/svg">
<path opacity="0.2" d="M3.64645 32.3536C3.84171 32.5488 4.15829 32.5488 4.35355 32.3536L7.53554 29.1716C7.7308 28.9763 7.7308 28.6597 7.53554 28.4645C7.34027 28.2692 7.02369 28.2692 6.82843 28.4645L4 31.2929L1.17157 28.4645C0.976312 28.2692 0.659729 28.2692 0.464467 28.4645C0.269205 28.6597 0.269205 28.9763 0.464467 29.1716L3.64645 32.3536ZM4 0L3.5 2.11727e-08L3.5 1.6L4 1.6L4.5 1.6L4.5 -2.11727e-08L4 0ZM4 4.8L3.5 4.8L3.5 8L4 8L4.5 8L4.5 4.8L4 4.8ZM4 11.2L3.5 11.2L3.5 14.4L4 14.4L4.5 14.4L4.5 11.2L4 11.2ZM4 17.6L3.5 17.6L3.5 20.8L4 20.8L4.5 20.8L4.5 17.6L4 17.6ZM4 24L3.5 24L3.5 27.2L4 27.2L4.5 27.2L4.5 24L4 24ZM4 30.4L3.5 30.4L3.5 32L4 32L4.5 32L4.5 30.4L4 30.4ZM3.64645 32.3536C3.84171 32.5488 4.15829 32.5488 4.35355 32.3536L7.53554 29.1716C7.7308 28.9763 7.7308 28.6597 7.53554 28.4645C7.34027 28.2692 7.02369 28.2692 6.82843 28.4645L4 31.2929L1.17157 28.4645C0.976312 28.2692 0.659729 28.2692 0.464467 28.4645C0.269205 28.6597 0.269205 28.9763 0.464467 29.1716L3.64645 32.3536ZM4 0L3.5 2.11727e-08L3.5 1.6L4 1.6L4.5 1.6L4.5 -2.11727e-08L4 0ZM4 4.8L3.5 4.8L3.5 8L4 8L4.5 8L4.5 4.8L4 4.8ZM4 11.2L3.5 11.2L3.5 14.4L4 14.4L4.5 14.4L4.5 11.2L4 11.2ZM4 17.6L3.5 17.6L3.5 20.8L4 20.8L4.5 20.8L4.5 17.6L4 17.6ZM4 24L3.5 24L3.5 27.2L4 27.2L4.5 27.2L4.5 24L4 24ZM4 30.4L3.5 30.4L3.5 32L4 32L4.5 32L4.5 30.4L4 30.4Z" fill="#0F255F"/>
</svg>
